<mxfile host="app.diagrams.net" agent="Mozilla/5.0 (X11; Linux x86_64) AppleWebKit/537.36 (KHTML, like Gecko) Chrome/136.0.0.0 Safari/537.36" version="26.2.14">
  <diagram id="C5RBs43oDa-KdzZeNtuy" name="Page-1">
    <mxGraphModel dx="1246" dy="687" grid="1" gridSize="10" guides="1" tooltips="1" connect="1" arrows="1" fold="1" page="1" pageScale="1" pageWidth="827" pageHeight="1169" math="0" shadow="0">
      <root>
        <mxCell id="WIyWlLk6GJQsqaUBKTNV-0" />
        <mxCell id="WIyWlLk6GJQsqaUBKTNV-1" parent="WIyWlLk6GJQsqaUBKTNV-0" />
        <mxCell id="jiTDzkpAPrFB3wtAa3K6-9" value="" style="edgeStyle=orthogonalEdgeStyle;rounded=0;orthogonalLoop=1;jettySize=auto;html=1;" edge="1" parent="WIyWlLk6GJQsqaUBKTNV-1" source="jiTDzkpAPrFB3wtAa3K6-7" target="jiTDzkpAPrFB3wtAa3K6-8">
          <mxGeometry relative="1" as="geometry" />
        </mxCell>
        <mxCell id="jiTDzkpAPrFB3wtAa3K6-7" value="Start" style="ellipse;whiteSpace=wrap;html=1;" vertex="1" parent="WIyWlLk6GJQsqaUBKTNV-1">
          <mxGeometry x="120" y="80" width="120" height="80" as="geometry" />
        </mxCell>
        <mxCell id="jiTDzkpAPrFB3wtAa3K6-11" value="" style="edgeStyle=orthogonalEdgeStyle;rounded=0;orthogonalLoop=1;jettySize=auto;html=1;" edge="1" parent="WIyWlLk6GJQsqaUBKTNV-1" source="jiTDzkpAPrFB3wtAa3K6-8" target="jiTDzkpAPrFB3wtAa3K6-10">
          <mxGeometry relative="1" as="geometry" />
        </mxCell>
        <mxCell id="jiTDzkpAPrFB3wtAa3K6-8" value="Inisialisasi, Deklarasi, Setup" style="rounded=0;whiteSpace=wrap;html=1;" vertex="1" parent="WIyWlLk6GJQsqaUBKTNV-1">
          <mxGeometry x="120" y="220" width="120" height="60" as="geometry" />
        </mxCell>
        <mxCell id="jiTDzkpAPrFB3wtAa3K6-13" value="" style="edgeStyle=orthogonalEdgeStyle;rounded=0;orthogonalLoop=1;jettySize=auto;html=1;" edge="1" parent="WIyWlLk6GJQsqaUBKTNV-1" source="jiTDzkpAPrFB3wtAa3K6-10" target="jiTDzkpAPrFB3wtAa3K6-12">
          <mxGeometry relative="1" as="geometry" />
        </mxCell>
        <mxCell id="jiTDzkpAPrFB3wtAa3K6-10" value="Read Sensor Velue" style="shape=parallelogram;perimeter=parallelogramPerimeter;whiteSpace=wrap;html=1;fixedSize=1;" vertex="1" parent="WIyWlLk6GJQsqaUBKTNV-1">
          <mxGeometry x="120" y="340" width="120" height="60" as="geometry" />
        </mxCell>
        <mxCell id="jiTDzkpAPrFB3wtAa3K6-18" style="edgeStyle=orthogonalEdgeStyle;rounded=0;orthogonalLoop=1;jettySize=auto;html=1;" edge="1" parent="WIyWlLk6GJQsqaUBKTNV-1" source="jiTDzkpAPrFB3wtAa3K6-12" target="jiTDzkpAPrFB3wtAa3K6-17">
          <mxGeometry relative="1" as="geometry" />
        </mxCell>
        <mxCell id="jiTDzkpAPrFB3wtAa3K6-32" style="edgeStyle=orthogonalEdgeStyle;rounded=0;orthogonalLoop=1;jettySize=auto;html=1;entryX=0.5;entryY=0;entryDx=0;entryDy=0;" edge="1" parent="WIyWlLk6GJQsqaUBKTNV-1" source="jiTDzkpAPrFB3wtAa3K6-12" target="jiTDzkpAPrFB3wtAa3K6-31">
          <mxGeometry relative="1" as="geometry" />
        </mxCell>
        <mxCell id="jiTDzkpAPrFB3wtAa3K6-12" value="Analisa Data" style="rounded=0;whiteSpace=wrap;html=1;" vertex="1" parent="WIyWlLk6GJQsqaUBKTNV-1">
          <mxGeometry x="120" y="460" width="120" height="60" as="geometry" />
        </mxCell>
        <mxCell id="jiTDzkpAPrFB3wtAa3K6-20" style="edgeStyle=orthogonalEdgeStyle;rounded=0;orthogonalLoop=1;jettySize=auto;html=1;entryX=1;entryY=0.5;entryDx=0;entryDy=0;" edge="1" parent="WIyWlLk6GJQsqaUBKTNV-1" source="jiTDzkpAPrFB3wtAa3K6-17" target="jiTDzkpAPrFB3wtAa3K6-10">
          <mxGeometry relative="1" as="geometry">
            <mxPoint x="360" y="370" as="targetPoint" />
            <Array as="points">
              <mxPoint x="360" y="370" />
            </Array>
          </mxGeometry>
        </mxCell>
        <mxCell id="jiTDzkpAPrFB3wtAa3K6-24" style="edgeStyle=orthogonalEdgeStyle;rounded=0;orthogonalLoop=1;jettySize=auto;html=1;entryX=0;entryY=0.5;entryDx=0;entryDy=0;" edge="1" parent="WIyWlLk6GJQsqaUBKTNV-1" source="jiTDzkpAPrFB3wtAa3K6-17" target="jiTDzkpAPrFB3wtAa3K6-22">
          <mxGeometry relative="1" as="geometry" />
        </mxCell>
        <mxCell id="jiTDzkpAPrFB3wtAa3K6-17" value="Jika sesor gagal membaca" style="rhombus;whiteSpace=wrap;html=1;" vertex="1" parent="WIyWlLk6GJQsqaUBKTNV-1">
          <mxGeometry x="320" y="450" width="80" height="80" as="geometry" />
        </mxCell>
        <mxCell id="jiTDzkpAPrFB3wtAa3K6-26" value="" style="edgeStyle=orthogonalEdgeStyle;rounded=0;orthogonalLoop=1;jettySize=auto;html=1;" edge="1" parent="WIyWlLk6GJQsqaUBKTNV-1" source="jiTDzkpAPrFB3wtAa3K6-22" target="jiTDzkpAPrFB3wtAa3K6-23">
          <mxGeometry relative="1" as="geometry" />
        </mxCell>
        <mxCell id="jiTDzkpAPrFB3wtAa3K6-22" value="Jika gagal selama 3 kali" style="rhombus;whiteSpace=wrap;html=1;" vertex="1" parent="WIyWlLk6GJQsqaUBKTNV-1">
          <mxGeometry x="480" y="450" width="80" height="80" as="geometry" />
        </mxCell>
        <mxCell id="jiTDzkpAPrFB3wtAa3K6-28" value="" style="edgeStyle=orthogonalEdgeStyle;rounded=0;orthogonalLoop=1;jettySize=auto;html=1;" edge="1" parent="WIyWlLk6GJQsqaUBKTNV-1" source="jiTDzkpAPrFB3wtAa3K6-23" target="jiTDzkpAPrFB3wtAa3K6-27">
          <mxGeometry relative="1" as="geometry" />
        </mxCell>
        <mxCell id="jiTDzkpAPrFB3wtAa3K6-23" value="Kirim Notifikasi dan Error Code" style="rounded=0;whiteSpace=wrap;html=1;" vertex="1" parent="WIyWlLk6GJQsqaUBKTNV-1">
          <mxGeometry x="640" y="460" width="120" height="60" as="geometry" />
        </mxCell>
        <mxCell id="jiTDzkpAPrFB3wtAa3K6-30" style="edgeStyle=orthogonalEdgeStyle;rounded=0;orthogonalLoop=1;jettySize=auto;html=1;" edge="1" parent="WIyWlLk6GJQsqaUBKTNV-1" source="jiTDzkpAPrFB3wtAa3K6-27" target="jiTDzkpAPrFB3wtAa3K6-29">
          <mxGeometry relative="1" as="geometry" />
        </mxCell>
        <mxCell id="jiTDzkpAPrFB3wtAa3K6-27" value="Notikasi diabaikan 3X" style="rhombus;whiteSpace=wrap;html=1;" vertex="1" parent="WIyWlLk6GJQsqaUBKTNV-1">
          <mxGeometry x="660" y="585" width="80" height="80" as="geometry" />
        </mxCell>
        <mxCell id="jiTDzkpAPrFB3wtAa3K6-29" value="Stop / Kegagalan Fungsi" style="ellipse;whiteSpace=wrap;html=1;" vertex="1" parent="WIyWlLk6GJQsqaUBKTNV-1">
          <mxGeometry x="640" y="730" width="120" height="80" as="geometry" />
        </mxCell>
        <mxCell id="jiTDzkpAPrFB3wtAa3K6-33" style="edgeStyle=orthogonalEdgeStyle;rounded=0;orthogonalLoop=1;jettySize=auto;html=1;entryX=0;entryY=0.5;entryDx=0;entryDy=0;" edge="1" parent="WIyWlLk6GJQsqaUBKTNV-1" source="jiTDzkpAPrFB3wtAa3K6-31" target="jiTDzkpAPrFB3wtAa3K6-10">
          <mxGeometry relative="1" as="geometry">
            <mxPoint x="50" y="370" as="targetPoint" />
            <Array as="points">
              <mxPoint x="51" y="625" />
              <mxPoint x="51" y="370" />
            </Array>
          </mxGeometry>
        </mxCell>
        <mxCell id="jiTDzkpAPrFB3wtAa3K6-31" value="Jalankan otomatisasi program" style="rhombus;whiteSpace=wrap;html=1;" vertex="1" parent="WIyWlLk6GJQsqaUBKTNV-1">
          <mxGeometry x="140" y="584.5" width="80" height="80" as="geometry" />
        </mxCell>
        <mxCell id="jiTDzkpAPrFB3wtAa3K6-34" value="&lt;h1 style=&quot;margin-top: 0px;&quot;&gt;Data Sensor&lt;/h1&gt;&lt;p&gt;1. Kelembaban Udara&lt;/p&gt;&lt;p&gt;2. Kelembaban Tanah&lt;/p&gt;&lt;p&gt;3. Cuaca&lt;/p&gt;&lt;p&gt;4. Ketersediaan Air Irigasi&lt;/p&gt;&lt;p&gt;5. Jenis Jenis Pupuk&lt;/p&gt;" style="text;html=1;whiteSpace=wrap;overflow=hidden;rounded=0;" vertex="1" parent="WIyWlLk6GJQsqaUBKTNV-1">
          <mxGeometry x="50" y="940" width="200" height="170" as="geometry" />
        </mxCell>
      </root>
    </mxGraphModel>
  </diagram>
</mxfile>
